<?xml version="1.0" encoding="UTF-8" standalone="no"?>
<svg
   aria-hidden="true"
   role="img"
   class="iconify iconify--logos"
   width="35.93"
   height="32"
   preserveAspectRatio="xMidYMid meet"
   viewBox="0 0 256 228"
   version="1.1"
   id="svg4"
   sodipodi:docname="react.svg"
   inkscape:version="1.2.2 (732a01da63, 2022-12-09)"
   xmlns:inkscape="http://www.inkscape.org/namespaces/inkscape"
   xmlns:sodipodi="http://sodipodi.sourceforge.net/DTD/sodipodi-0.dtd"
   xmlns="http://www.w3.org/2000/svg"
   xmlns:svg="http://www.w3.org/2000/svg">
  <defs
     id="defs8" />
  <sodipodi:namedview
     id="namedview6"
     pagecolor="#505050"
     bordercolor="#eeeeee"
     borderopacity="1"
     inkscape:showpageshadow="0"
     inkscape:pageopacity="0"
     inkscape:pagecheckerboard="0"
     inkscape:deskcolor="#505050"
     showgrid="false"
     inkscape:zoom="23.414073"
     inkscape:cx="10.079408"
     inkscape:cy="19.176501"
     inkscape:window-width="1920"
     inkscape:window-height="1009"
     inkscape:window-x="-8"
     inkscape:window-y="-8"
     inkscape:window-maximized="1"
     inkscape:current-layer="svg4" />
  <path
     fill="#00D8FF"
     d="M210.483 73.824a171.49 171.49 0 0 0-8.24-2.597c.465-1.9.893-3.777 1.273-5.621c6.238-30.281 2.16-54.676-11.769-62.708c-13.355-7.7-35.196.329-57.254 19.526a171.23 171.23 0 0 0-6.375 5.848a155.866 155.866 0 0 0-4.241-3.917C100.759 3.829 77.587-4.822 63.673 3.233C50.33 10.957 46.379 33.89 51.995 62.588a170.974 170.974 0 0 0 1.892 8.48c-3.28.932-6.445 1.924-9.474 2.98C17.309 83.498 0 98.307 0 113.668c0 15.865 18.582 31.778 46.812 41.427a145.52 145.52 0 0 0 6.921 2.165a167.467 167.467 0 0 0-2.01 9.138c-5.354 28.2-1.173 50.591 12.134 58.266c13.744 7.926 36.812-.22 59.273-19.855a145.567 145.567 0 0 0 5.342-4.923a168.064 168.064 0 0 0 6.92 6.314c21.758 18.722 43.246 26.282 56.54 18.586c13.731-7.949 18.194-32.003 12.4-61.268a145.016 145.016 0 0 0-1.535-6.842c1.62-.48 3.21-.974 4.76-1.488c29.348-9.723 48.443-25.443 48.443-41.52c0-15.417-17.868-30.326-45.517-39.844Zm-6.365 70.984c-1.4.463-2.836.91-4.3 1.345c-3.24-10.257-7.612-21.163-12.963-32.432c5.106-11 9.31-21.767 12.459-31.957c2.619.758 5.16 1.557 7.61 2.4c23.69 8.156 38.14 20.213 38.14 29.504c0 9.896-15.606 22.743-40.946 31.14Zm-10.514 20.834c2.562 12.94 2.927 24.64 1.23 33.787c-1.524 8.219-4.59 13.698-8.382 15.893c-8.067 4.67-25.32-1.4-43.927-17.412a156.726 156.726 0 0 1-6.437-5.87c7.214-7.889 14.423-17.06 21.459-27.246c12.376-1.098 24.068-2.894 34.671-5.345a134.17 134.17 0 0 1 1.386 6.193ZM87.276 214.515c-7.882 2.783-14.16 2.863-17.955.675c-8.075-4.657-11.432-22.636-6.853-46.752a156.923 156.923 0 0 1 1.869-8.499c10.486 2.32 22.093 3.988 34.498 4.994c7.084 9.967 14.501 19.128 21.976 27.15a134.668 134.668 0 0 1-4.877 4.492c-9.933 8.682-19.886 14.842-28.658 17.94ZM50.35 144.747c-12.483-4.267-22.792-9.812-29.858-15.863c-6.35-5.437-9.555-10.836-9.555-15.216c0-9.322 13.897-21.212 37.076-29.293c2.813-.98 5.757-1.905 8.812-2.773c3.204 10.42 7.406 21.315 12.477 32.332c-5.137 11.18-9.399 22.249-12.634 32.792a134.718 134.718 0 0 1-6.318-1.979Zm12.378-84.26c-4.811-24.587-1.616-43.134 6.425-47.789c8.564-4.958 27.502 2.111 47.463 19.835a144.318 144.318 0 0 1 3.841 3.545c-7.438 7.987-14.787 17.08-21.808 26.988c-12.04 1.116-23.565 2.908-34.161 5.309a160.342 160.342 0 0 1-1.76-7.887Zm110.427 27.268a347.8 347.8 0 0 0-7.785-12.803c8.168 1.033 15.994 2.404 23.343 4.08c-2.206 7.072-4.956 14.465-8.193 22.045a381.151 381.151 0 0 0-7.365-13.322Zm-45.032-43.861c5.044 5.465 10.096 11.566 15.065 18.186a322.04 322.04 0 0 0-30.257-.006c4.974-6.559 10.069-12.652 15.192-18.18ZM82.802 87.83a323.167 323.167 0 0 0-7.227 13.238c-3.184-7.553-5.909-14.98-8.134-22.152c7.304-1.634 15.093-2.97 23.209-3.984a321.524 321.524 0 0 0-7.848 12.897Zm8.081 65.352c-8.385-.936-16.291-2.203-23.593-3.793c2.26-7.3 5.045-14.885 8.298-22.6a321.187 321.187 0 0 0 7.257 13.246c2.594 4.48 5.28 8.868 8.038 13.147Zm37.542 31.03c-5.184-5.592-10.354-11.779-15.403-18.433c4.902.192 9.899.29 14.978.29c5.218 0 10.376-.117 15.453-.343c-4.985 6.774-10.018 12.97-15.028 18.486Zm52.198-57.817c3.422 7.8 6.306 15.345 8.596 22.52c-7.422 1.694-15.436 3.058-23.88 4.071a382.417 382.417 0 0 0 7.859-13.026a347.403 347.403 0 0 0 7.425-13.565Zm-16.898 8.101a358.557 358.557 0 0 1-12.281 19.815a329.4 329.4 0 0 1-23.444.823c-7.967 0-15.716-.248-23.178-.732a310.202 310.202 0 0 1-12.513-19.846h.001a307.41 307.41 0 0 1-10.923-20.627a310.278 310.278 0 0 1 10.89-20.637l-.001.001a307.318 307.318 0 0 1 12.413-19.761c7.613-.576 15.42-.876 23.31-.876H128c7.926 0 15.743.303 23.354.883a329.357 329.357 0 0 1 12.335 19.695a358.489 358.489 0 0 1 11.036 20.54a329.472 329.472 0 0 1-11 20.722Zm22.56-122.124c8.572 4.944 11.906 24.881 6.52 51.026c-.344 1.668-.73 3.367-1.15 5.09c-10.622-2.452-22.155-4.275-34.23-5.408c-7.034-10.017-14.323-19.124-21.64-27.008a160.789 160.789 0 0 1 5.888-5.4c18.9-16.447 36.564-22.941 44.612-18.3ZM128 90.808c12.625 0 22.86 10.235 22.86 22.86s-10.235 22.86-22.86 22.86s-22.86-10.235-22.86-22.86s10.235-22.86 22.86-22.86Z"
     id="path2" />
  <path
     style="opacity:1;fill:#000000;fill-opacity:1;fill-rule:nonzero;stroke-width:0.135;stroke-linejoin:round;stroke-miterlimit:1;stroke-dasharray:none;stroke:#000000;stroke-opacity:1"
     d="M 10.071419,31.891272 C 9.1316387,31.737244 8.4257006,31.271397 7.8920634,30.453125 6.8515016,28.85754 6.6731522,26.105181 7.3959484,22.796875 7.4672956,22.470312 7.5269259,22.16961 7.5284603,22.128647 7.5310572,22.059307 7.49569,22.042927 7.015625,21.891137 5.1015372,21.285931 3.4562084,20.46749 2.2036294,19.497492 1.8383748,19.214638 1.2286029,18.626323 0.97541847,18.3125 0.07451468,17.195825 -0.19503197,16.045963 0.19040111,14.963684 0.31161056,14.623334 0.55838341,14.167287 0.79043947,13.854787 1.0556922,13.497584 1.7262793,12.830645 2.125,12.527488 3.4284259,11.536462 5.150455,10.712071 7.1808853,10.10707 7.3907734,10.044531 7.5659716,9.9902122 7.5702147,9.9863622 7.5744575,9.9825125 7.5210291,9.7273653 7.4514847,9.4193687 6.4344953,4.9153534 7.0565994,1.437072 9.0625,0.41192894 9.5548237,0.16032011 9.9949262,0.0625 10.634616,0.0625 c 1.326451,0 2.86886,0.57339444 4.584134,1.7041637 0.785661,0.5179353 1.731547,1.2643436 2.429586,1.9172107 0.167522,0.1566815 0.315646,0.2848756 0.329165,0.2848756 0.01352,0 0.185829,-0.1486644 0.382913,-0.3303656 3.151455,-2.90546678 6.180565,-4.16304756 8.171605,-3.39256516 0.531706,0.20575663 1.051268,0.6414532 1.414742,1.18637876 1.10445,1.6558118 1.300072,4.5069829 0.549254,8.005302 -0.06087,0.2835937 -0.112994,0.5276194 -0.11584,0.5422787 -0.0028,0.01466 0.218973,0.096332 0.492931,0.1814943 2.495803,0.775839 4.473113,1.844956 5.706291,3.085346 0.461847,0.46455 0.734797,0.830933 0.968675,1.300256 0.411003,0.824769 0.470209,1.592784 0.185487,2.40625 -0.655556,1.872977 -3.141803,3.672243 -6.671059,4.827765 -0.326563,0.10692 -0.598708,0.199059 -0.604768,0.204752 -0.0061,0.0057 0.02486,0.162425 0.06872,0.348292 0.708258,3.001898 0.629289,5.828513 -0.212077,7.591137 -0.223229,0.467656 -0.443615,0.787491 -0.764797,1.109914 -0.413753,0.415352 -0.844979,0.66519 -1.402616,0.812624 -0.348494,0.09214 -1.12322,0.114613 -1.58928,0.0461 -1.819919,-0.267531 -3.941235,-1.483451 -6.181559,-3.543218 l -0.341519,-0.313995 -0.14397,0.130189 c -0.07918,0.0716 -0.297906,0.269534 -0.48605,0.439843 -1.639684,1.484255 -3.652422,2.68755 -5.183138,3.098684 -0.777663,0.208872 -1.584718,0.278713 -2.150022,0.18606 z m 1.115754,-1.501191 c 1.307484,-0.197063 2.87749,-0.994251 4.475454,-2.272463 0.496588,-0.39722 1.254883,-1.06988 1.280066,-1.135507 0.01,-0.026 -0.149134,-0.228076 -0.397556,-0.504916 -0.777176,-0.86608 -1.638572,-1.933221 -2.330427,-2.887052 l -0.331287,-0.456731 -0.426086,-0.03789 C 12.13151,22.977625 10.758814,22.782311 9.5823215,22.544164 9.2838484,22.483744 9.0320775,22.44188 9.0228306,22.451124 c -0.025608,0.02561 -0.2081691,0.854321 -0.3001825,1.362638 -0.4418684,2.441046 -0.3077616,4.569423 0.3606956,5.724505 0.4280016,0.739579 1.0846023,1.005427 2.1038293,0.85181 z m 14.571238,3.12e-4 c 0.276715,-0.06524 0.490488,-0.182506 0.704042,-0.386202 0.975325,-0.93031 1.300906,-3.430616 0.816434,-6.269816 -0.07547,-0.442294 -0.265259,-1.309843 -0.292729,-1.338116 -0.01369,-0.01409 -0.30311,0.03196 -0.643157,0.102324 -1.121398,0.232054 -2.289565,0.411868 -3.553904,0.547048 -0.377422,0.04035 -0.696464,0.08527 -0.708981,0.09981 -0.01252,0.01454 -0.182098,0.251438 -0.376846,0.526438 -0.679828,0.959973 -1.534973,2.044538 -2.291064,2.905717 -0.180824,0.205957 -0.32235,0.384856 -0.314502,0.397555 0.03886,0.06288 1.036624,0.941666 1.39739,1.230763 1.427593,1.143991 2.882718,1.921612 4.051781,2.165276 0.366255,0.07634 0.931219,0.08529 1.211536,0.0192 z m -7.374583,-4.913831 c 0.478594,-0.551008 0.943833,-1.12288 1.383824,-1.700995 0.205135,-0.269532 0.372974,-0.494532 0.372976,-0.5 2e-6,-0.0055 -0.963277,-0.0099 -2.14062,-0.0099 -1.177343,0 -2.140625,0.0076 -2.140628,0.01698 -2.5e-5,0.08418 2.098859,2.592394 2.169327,2.592394 0.005,0 0.16478,-0.179297 0.355121,-0.398438 z m 1.413047,-3.726288 c 0.352344,-0.01628 0.827072,-0.03911 1.054951,-0.05074 l 0.414326,-0.02115 0.355497,-0.550128 c 0.945556,-1.46324 1.726158,-2.815319 2.540999,-4.401262 l 0.389136,-0.757384 -0.304013,-0.586366 c -0.860632,-1.65995 -1.721939,-3.142745 -2.612588,-4.497741 l -0.373104,-0.567624 -0.146664,-0.01805 c -1.057229,-0.13015 -5.232058,-0.129766 -6.2965,5.78e-4 l -0.149835,0.01835 -0.212216,0.317188 c -0.589058,0.880432 -1.347442,2.127443 -1.893495,3.113473 -0.459315,0.829406 -1.141494,2.164903 -1.141494,2.234695 0,0.0702 0.756693,1.553735 1.171682,2.297146 0.466753,0.836142 1.098631,1.876121 1.626181,2.676456 l 0.476792,0.72333 0.32361,0.02194 c 1.092167,0.07406 3.649144,0.09938 4.776735,0.04729 z m -7.049953,-0.289337 c -0.01232,-0.02148 -0.158898,-0.257031 -0.325739,-0.523437 -0.530373,-0.846886 -1.516258,-2.571993 -1.7368,-3.039063 -0.03043,-0.06445 -0.06387,-0.117187 -0.07431,-0.117187 -0.02658,0 -0.51999,1.245892 -0.7621013,1.92434 -0.3043653,0.852898 -0.4280638,1.264517 -0.3847135,1.280172 0.1635663,0.05907 1.6208488,0.311815 2.5054888,0.434546 0.62995,0.0874 0.810381,0.09682 0.778172,0.04063 z m 11.831203,-0.165971 c 0.616051,-0.09666 1.944243,-0.354828 1.974659,-0.383817 0.02548,-0.02428 -0.258276,-0.865413 -0.544574,-1.614274 -0.223805,-0.585402 -0.610769,-1.518296 -0.644574,-1.553942 -0.01184,-0.01248 -0.146709,0.212519 -0.299719,0.5 -0.375616,0.705723 -1.017907,1.825986 -1.480396,2.582059 -0.209218,0.342026 -0.380396,0.631482 -0.380396,0.643234 0,0.02397 0.599395,-0.05156 1.375,-0.17326 z M 8.1780887,19.955583 C 8.5416909,18.848016 9.0097775,17.642039 9.5230244,16.490496 L 9.7431481,15.996617 9.6582012,15.802996 C 9.0016353,14.306469 8.6073025,13.306308 8.2327219,12.1875 7.9887394,11.458767 7.9862015,11.4532 7.9023722,11.462922 c -0.1612406,0.0187 -1.6550038,0.531443 -2.1413488,0.735031 -2.5079322,1.049841 -4.1095627,2.423219 -4.2331917,3.629909 -0.1249138,1.21923 1.5425279,2.8133 4.1440433,3.961693 0.6657081,0.293866 2.0754181,0.796449 2.25,0.802161 0.033656,0.0011 0.1059109,-0.178296 0.2562137,-0.636133 z M 28.65625,20.335952 c 2.986744,-0.985659 5.209722,-2.51334 5.672759,-3.898452 0.127153,-0.380365 0.08387,-0.835168 -0.11734,-1.23304 -0.204578,-0.40452 -0.673913,-0.941863 -1.180419,-1.351467 -1.051206,-0.850094 -2.72373,-1.672886 -4.555445,-2.241037 -0.253932,-0.07876 -0.474804,-0.143206 -0.490828,-0.143206 -0.01602,0 -0.06528,0.116016 -0.109459,0.257812 -0.289803,0.930145 -0.902632,2.52328 -1.388393,3.609326 l -0.28141,0.629165 0.17429,0.369036 c 0.481563,1.019643 1.087747,2.522636 1.443341,3.578673 0.203481,0.604292 0.208861,0.61553 0.28577,0.596885 0.04311,-0.01045 0.289321,-0.08861 0.547134,-0.173695 z M 10.793935,13.867021 c 0.502182,-0.951681 1.084113,-1.965442 1.634351,-2.847147 0.170158,-0.272663 0.303321,-0.501809 0.295917,-0.509212 -0.05137,-0.05137 -3.1874905,0.489084 -3.2602477,0.561841 -0.051942,0.05194 1.0695087,3.115396 1.1402577,3.114831 0.01143,-9.4e-5 0.09681,-0.144232 0.189722,-0.320313 z m 14.707279,-0.03108 c 0.332333,-0.788403 0.983161,-2.58471 0.983161,-2.713557 0,-0.0402 -0.100277,-0.07157 -0.485598,-0.151897 -0.94593,-0.1972 -2.752784,-0.492517 -2.789394,-0.455908 -0.0076,0.0076 0.136458,0.254906 0.320157,0.549541 0.435483,0.698474 1.024204,1.715 1.445853,2.496511 0.185409,0.343648 0.346224,0.625278 0.357368,0.625844 0.01114,5.66e-4 0.08695,-0.157174 0.168453,-0.350534 z M 10.386147,9.3428203 C 11.205952,9.1906515 12.348414,9.0248869 13.21231,8.9327606 l 0.64981,-0.069296 0.145423,-0.2051697 C 14.714204,7.6613012 15.682808,6.4535881 16.575461,5.4564622 L 16.936159,5.0535497 16.792741,4.9252122 C 15.872632,4.1018525 15.498777,3.7957469 14.827374,3.3160072 13.692822,2.505332 12.558172,1.9342694 11.578125,1.6806803 11.116041,1.5611151 10.464997,1.5273472 10.132533,1.6057012 9.424205,1.7726376 8.9632234,2.359783 8.6886584,3.4447431 8.5316684,4.0650978 8.5007437,4.4026334 8.5003575,5.5 8.499995,6.5269481 8.5149222,6.7487484 8.6444112,7.640625 8.7230375,8.182175 8.9493984,9.31905 9.0309237,9.5818447 9.0384315,9.6060453 9.1460122,9.5937 9.3802612,9.5417572 9.56643,9.5004759 10.019079,9.4109544 10.386147,9.3428203 Z m 16.535728,0.2677834 c 0,-0.00792 0.04324,-0.2077972 0.09609,-0.4441756 0.721044,-3.2249112 0.49755,-6.1368101 -0.551831,-7.189787 -0.354127,-0.355341 -0.685387,-0.4621358 -1.356423,-0.4372976 -0.664787,0.024607 -1.263377,0.2035036 -2.172213,0.6491952 -1.152884,0.565372 -2.314102,1.40455 -3.686433,2.6640766 l -0.217684,0.1997897 0.123934,0.1418619 c 0.06816,0.078024 0.30085,0.3439675 0.517081,0.590985 0.70088,0.800669 1.713667,2.088415 2.276419,2.8944356 0.075,0.1074219 0.158935,0.1954356 0.186523,0.1955862 0.09267,5.063e-4 1.170614,0.1243738 1.64391,0.1889041 0.929805,0.1267725 2.960123,0.4960616 3.013021,0.54803 0.0179,0.017587 0.127604,0.016208 0.127604,-0.0016 z M 20.085141,8.671875 C 19.911764,8.3752512 18.058009,6.15625 17.983586,6.15625 c -0.07878,0 -1.372713,1.5308934 -2.126234,2.515625 -0.01589,0.020762 0.69264,0.03125 2.111071,0.03125 1.414666,0 2.128821,-0.010544 2.116718,-0.03125 z"
     id="path1641"
     transform="matrix(7.125,0,0,7.125,-6.2608719e-4,0)" />
  <path
     style="opacity:1;fill:#000000;fill-opacity:1;fill-rule:nonzero;stroke:#9a27a7;stroke-width:0.104;stroke-linejoin:round;stroke-miterlimit:1;stroke-dasharray:none;stroke-opacity:1"
     d="m 17.5625,19.122369 c -1.297724,-0.177378 -2.35553,-1.116554 -2.692143,-2.390225 -0.07107,-0.268896 -0.082,-0.372775 -0.082,-0.779019 0,-0.40267 0.01121,-0.511124 0.07954,-0.76934 0.566054,-2.139063 3.010556,-3.099594 4.83293,-1.899029 1.275761,0.840461 1.784722,2.429715 1.229844,3.840244 -0.3852,0.979197 -1.282338,1.734572 -2.31913,1.952668 -0.2826,0.05945 -0.78465,0.08084 -1.049046,0.0447 z"
     id="path1643"
     transform="matrix(7.125,0,0,7.125,-6.2608719e-4,0)" />
  <path
     style="opacity:1;fill:#000000;fill-opacity:1;fill-rule:nonzero;stroke:#9a27a7;stroke-width:0.00459619;stroke-linejoin:round;stroke-miterlimit:1;stroke-dasharray:none;stroke-opacity:1"
     d="m 17.125242,18.944113 c -1.074093,-0.320292 -1.907867,-1.181964 -2.185908,-2.259049 -0.08837,-0.342347 -0.08904,-1.115452 -0.0013,-1.461935 0.0902,-0.356037 0.371967,-0.915317 0.61679,-1.224262 0.381829,-0.481836 1.071421,-0.918325 1.702965,-1.077922 0.375343,-0.09485 1.041779,-0.0944 1.414213,9.57e-4 1.415212,0.362354 2.386486,1.596425 2.386486,3.032195 0,1.193518 -0.654719,2.244677 -1.739033,2.792037 -0.620069,0.31301 -1.532438,0.39533 -2.194249,0.197979 z"
     id="path3304"
     transform="matrix(7.125,0,0,7.125,-6.2608719e-4,0)" />
  <path
     style="opacity:1;fill:#000000;fill-opacity:1;fill-rule:nonzero;stroke:#9a27a7;stroke-width:0.00459619;stroke-linejoin:round;stroke-miterlimit:1;stroke-dasharray:none;stroke-opacity:1"
     d="m 17.633475,18.99936 c -0.413478,-0.03506 -0.642383,-0.103186 -1.041004,-0.309815 -0.698658,-0.362157 -1.238209,-0.963266 -1.53515,-1.710298 -0.110471,-0.277917 -0.1177,-0.34037 -0.118664,-1.02515 l -10e-4,-0.729204 0.150471,-0.34903 c 0.409157,-0.949068 1.0554,-1.547299 2.03714,-1.88579 0.381811,-0.131643 1.211958,-0.144085 1.611082,-0.02415 1.385095,0.416229 2.278006,1.587503 2.278006,2.98817 0,1.201763 -0.661083,2.253911 -1.743556,2.774962 -0.464958,0.22381 -1.048827,0.3202 -1.637299,0.270301 z"
     id="path3306"
     transform="matrix(7.125,0,0,7.125,-6.2608719e-4,0)" />
  <path
     style="opacity:1;fill:#9a27a7;fill-opacity:1;fill-rule:nonzero;stroke:#9a27a7;stroke-width:0.00459619;stroke-linejoin:round;stroke-miterlimit:1;stroke-dasharray:none;stroke-opacity:1"
     d="m 17.633475,18.977319 c -0.390737,-0.05196 -0.658004,-0.135984 -1.016466,-0.319576 -0.690738,-0.353772 -1.31472,-1.064691 -1.556197,-1.773014 -0.08514,-0.249753 -0.09896,-0.383748 -0.09994,-0.9693 -0.0011,-0.644498 0.005,-0.693421 0.11886,-0.950175 0.203803,-0.459726 0.414929,-0.789197 0.694454,-1.083724 1.102789,-1.161975 2.775702,-1.302087 4.027504,-0.337316 1.342193,1.034436 1.569824,3.031302 0.494786,4.340451 -0.390009,0.474942 -0.9838,0.856756 -1.558143,1.001903 -0.280487,0.07088 -0.882429,0.120326 -1.104855,0.09075 z"
     id="path3308"
     transform="matrix(7.125,0,0,7.125,-6.2608719e-4,0)" />
  <path
     style="opacity:1;fill:#9a27a7;fill-opacity:1;fill-rule:nonzero;stroke:#9a27a7;stroke-width:0.00444177;stroke-linejoin:round;stroke-miterlimit:1;stroke-dasharray:none;stroke-opacity:1"
     d="M 10.2716,31.961639 C 9.345698,31.822579 8.8086454,31.558063 8.2556408,30.968714 7.0980819,29.73508 6.6754104,27.466908 7.0513779,24.50631 7.0899146,24.20285 7.20278,23.547367 7.3021899,23.049683 7.4016002,22.551998 7.4713467,22.131475 7.4571817,22.115187 7.4430171,22.0989 7.0854822,21.966519 6.6626596,21.821007 4.9497859,21.231534 3.6226002,20.570899 2.3936146,19.696 1.8624788,19.317891 0.9350013,18.375455 0.62530627,17.899172 0.06400816,17.035946 -0.13627277,16.142292 0.04721711,15.319735 0.12897045,14.953248 0.3633548,14.433268 0.64122853,14.001925 0.90126389,13.598272 1.8416865,12.664692 2.3490146,12.306565 3.5599712,11.45174 5.1779598,10.684415 6.897561,10.149435 7.3035365,10.023133 7.5143435,9.9374366 7.5095793,9.9006386 7.5055817,9.8697662 7.4348627,9.5273896 7.3524251,9.1398022 7.0260602,7.6053665 6.9201154,6.5569599 6.9515157,5.1724776 6.9751285,4.1313581 7.0501902,3.5662294 7.2612978,2.8401722 7.6038794,1.6619405 8.2189454,0.81051424 9.0337348,0.38661415 9.539224,0.12362968 9.9268558,0.03528462 10.59192,0.03148855 c 0.688484,-0.0039297 1.179108,0.08000279 1.927276,0.32970469 1.643651,0.54857063 3.180642,1.53502056 5.248486,3.36850876 l 0.214137,0.1898681 0.447858,-0.4040148 c 3.321232,-2.9960978 6.377837,-4.16478415 8.355883,-3.19485366 0.357141,0.17512345 0.866722,0.62975323 1.143928,1.02057146 0.459885,0.6483677 0.762534,1.4799708 0.949627,2.6093423 0.0632,0.3814723 0.07741,0.7026749 0.07563,1.7083743 -0.0025,1.4026876 -0.06345,1.9977908 -0.355833,3.4738248 -0.111163,0.5611916 -0.148441,0.8311779 -0.116322,0.8424878 0.026,0.00915 0.422039,0.1444197 0.880097,0.3005917 2.773085,0.945464 4.862764,2.251412 5.877132,3.672921 0.239882,0.336165 0.542966,0.981022 0.631616,1.343863 0.312432,1.278768 -0.341514,2.705569 -1.800672,3.928763 -1.152017,0.965721 -2.74164,1.809163 -4.708707,2.498404 -0.457711,0.160378 -0.836301,0.293669 -0.841311,0.296204 -0.005,0.0025 0.06494,0.368877 0.155441,0.814094 0.437756,2.153464 0.491809,3.944309 0.168169,5.571579 -0.417244,2.097915 -1.508345,3.355477 -3.079236,3.549009 -1.843332,0.227095 -4.240973,-0.832553 -6.759451,-2.98737 -0.258391,-0.221081 -0.580001,-0.509054 -0.714688,-0.63994 l -0.244886,-0.237974 -0.118144,0.10894 c -2.100627,1.936979 -4.199545,3.208475 -5.969325,3.616136 -0.603752,0.139072 -1.332547,0.204354 -1.68702,0.151116 z m 1.144276,-1.662257 c 1.32873,-0.270309 2.921856,-1.135078 4.477539,-2.430466 0.765995,-0.63783 1.00272,-0.874189 0.957022,-0.955544 -0.02179,-0.0388 -0.282943,-0.34922 -0.580335,-0.689827 -0.792432,-0.907584 -1.534004,-1.844801 -2.394214,-3.025864 -0.006,-0.0082 -0.372503,-0.0514 -0.814561,-0.09607 -1.020504,-0.103113 -2.122409,-0.260069 -3.1386063,-0.447064 -0.4385303,-0.0807 -0.8158692,-0.14672 -0.8385308,-0.14672 -0.047525,0 -0.038269,-0.03692 -0.2356049,0.939606 -0.2546148,1.259967 -0.3061987,1.765955 -0.3047859,2.989654 0.00137,1.183028 0.049378,1.609594 0.2595862,2.306306 0.2641792,0.875593 0.6687256,1.374056 1.2668847,1.560995 0.249382,0.07794 0.950706,0.07533 1.345606,-0.005 z m 14.629597,-0.05596 c 0.611432,-0.301023 1.035456,-1.076762 1.275157,-2.332861 0.0878,-0.460088 0.09773,-0.637018 0.0971,-1.729729 -7.69e-4,-1.341572 -0.06062,-1.919159 -0.325674,-3.143009 -0.130268,-0.601494 -0.130393,-0.601794 -0.243169,-0.582503 -0.06206,0.01061 -0.44917,0.08329 -0.860248,0.161507 -0.841583,0.160124 -2.181976,0.360534 -3.139137,0.469349 -0.352353,0.04006 -0.672123,0.0892 -0.710602,0.109216 -0.03848,0.02001 -0.210688,0.233855 -0.382688,0.47521 -0.650808,0.913232 -1.334238,1.782173 -2.32608,2.957474 l -0.287324,0.34047 0.230392,0.208163 c 1.588639,1.435367 2.835673,2.28345 4.158737,2.82827 0.693806,0.2857 1.073511,0.362617 1.730643,0.350578 0.508178,-0.0093 0.601051,-0.02261 0.782889,-0.112135 z m -7.39378,-5.151678 c 0.76393,-0.918166 1.458671,-1.813772 1.429562,-1.842881 -0.01304,-0.01304 -0.154682,-0.0011 -0.314752,0.02649 -0.201051,0.03468 -0.841247,0.04594 -2.070552,0.0364 -1.181204,-0.0092 -1.768964,5.51e-4 -1.748133,0.0289 0.123222,0.167702 1.030428,1.277926 1.343628,1.64431 0.483655,0.565784 0.7206,0.815442 0.76045,0.801249 0.01718,-0.0061 0.287089,-0.318633 0.599797,-0.694475 z m 2.113491,-3.431671 0.47824,-0.02779 0.370964,-0.576576 c 0.873827,-1.358158 1.690999,-2.771736 2.448594,-4.235679 L 24.497831,15.97975 24.279053,15.543781 C 23.625801,14.242027 22.408171,12.138167 21.62322,10.95495 l -0.39667,-0.597931 -0.277611,-0.02897 c -0.575824,-0.0601 -4.077415,-0.08847 -5.10835,-0.04139 -0.566284,0.02586 -1.060061,0.0587 -1.097283,0.07298 -0.09797,0.03759 -0.842857,1.187617 -1.588957,2.45317 -0.49342,0.836951 -0.947411,1.673551 -1.369797,2.524218 l -0.330871,0.666362 0.492717,0.956594 c 0.746704,1.449701 1.338527,2.466329 2.325958,3.995519 l 0.450807,0.698144 0.240684,0.0059 c 0.132376,0.0032 0.634678,0.02039 1.116226,0.03811 0.917176,0.03376 3.864299,0.01013 4.685111,-0.03757 z m -8.10186,-0.2391 c 0,-0.01052 -0.112548,-0.197904 -0.250107,-0.416416 -0.325681,-0.517345 -1.128343,-1.897801 -1.500306,-2.580295 l -0.293006,-0.537623 -0.06181,0.12174 c -0.208236,0.410164 -1.0977599,2.890946 -1.0527374,2.935968 0.027521,0.02752 1.3597464,0.265695 2.1542934,0.385143 0.663294,0.09972 1.00367,0.13074 1.00367,0.09148 z m 12.022684,-0.195529 c 0.84658,-0.140473 1.768456,-0.322353 1.801534,-0.355431 0.05236,-0.05236 -1.062097,-3.018408 -1.133582,-3.016947 -0.01502,2.99e-4 -0.218892,0.348643 -0.453046,0.774079 -0.373071,0.677835 -1.215822,2.133537 -1.515022,2.616929 l -0.103373,0.167011 0.31736,-0.02904 c 0.174548,-0.01597 0.663306,-0.08644 1.086129,-0.156601 z M 7.9434815,20.468459 c 0.016519,-0.04111 0.1549944,-0.430297 0.3077235,-0.864865 0.3366911,-0.958005 0.8083028,-2.162325 1.161103,-2.965022 0.1437486,-0.327059 0.2613612,-0.61619 0.2613612,-0.642513 0,-0.02632 -0.1360699,-0.364135 -0.302378,-0.750692 C 8.9533293,14.273878 8.5700931,13.296277 8.2913377,12.490502 8.1616939,12.115751 8.033418,11.746675 8.0062801,11.670332 c -0.035335,-0.0994 -0.075928,-0.138806 -0.142999,-0.138806 -0.1212203,0 -1.527785,0.483997 -2.1615821,0.743797 -1.0595358,0.434315 -2.2467824,1.132138 -2.9250274,1.71923 -0.8265118,0.715434 -1.2902085,1.536499 -1.1996217,2.124166 0.1342924,0.8712 0.9757127,1.825016 2.4088163,2.730585 0.496801,0.313925 1.4568856,0.804802 2.0147983,1.030135 0.4629626,0.186984 1.7905078,0.658122 1.8639649,0.66151 0.02685,0.0012 0.062333,-0.03138 0.078852,-0.07249 z m 20.7662045,-0.20023 c 1.815077,-0.621712 3.482288,-1.496659 4.422264,-2.320791 0.71072,-0.62313 1.158772,-1.297961 1.211912,-1.825312 0.122518,-1.21585 -1.408083,-2.64766 -4.04874,-3.787419 -0.72495,-0.312902 -2.188949,-0.821825 -2.272208,-0.789876 -0.02721,0.01044 -0.09454,0.160668 -0.149626,0.333837 -0.260708,0.819583 -0.951584,2.591707 -1.407978,3.611522 l -0.213851,0.477851 0.150516,0.312272 c 0.391492,0.812218 1.098009,2.563758 1.491251,3.696988 0.0917,0.264264 0.188407,0.480481 0.214898,0.480481 0.02649,0 0.297195,-0.0853 0.601562,-0.189553 z m -17.99688,-6.355656 c 0.05672,-0.09983 0.261793,-0.469803 0.455714,-0.822155 0.19392,-0.352353 0.602744,-1.05909 0.908497,-1.570528 0.305754,-0.511439 0.548339,-0.937322 0.53908,-0.946408 -0.0366,-0.03592 -2.529001,0.378787 -2.9505208,0.490929 l -0.1575758,0.04192 0.063159,0.212679 c 0.1271594,0.428192 0.9977426,2.774474 1.0296376,2.774944 0.0049,8.6e-5 0.05529,-0.08155 0.112009,-0.181383 z m 14.969738,-0.662835 c 0.319443,-0.813735 0.733193,-1.988314 0.733193,-2.081436 0,-0.06332 -0.239292,-0.123551 -1.174508,-0.295639 -0.76679,-0.141095 -1.917599,-0.32032 -1.936519,-0.301589 -0.008,0.0079 0.215091,0.395471 0.495823,0.861159 0.280732,0.465689 0.7078,1.202262 0.94904,1.63683 0.541712,0.975834 0.550774,0.990413 0.597587,0.961482 0.02096,-0.01296 0.171885,-0.364319 0.335384,-0.780807 z m 1.218624,-3.7575836 c 0.06112,-0.2136151 0.24686,-1.2159469 0.322511,-1.7404063 0.383811,-2.6607894 0.07023,-4.8884963 -0.809261,-5.7490784 -0.28763,-0.2814458 -0.51213,-0.3747391 -0.986135,-0.409798 -1.411074,-0.1043676 -3.452085,0.9261974 -5.650163,2.8529301 -0.775324,0.6796131 -0.751562,0.5324037 -0.189761,1.1755759 0.571757,0.6545691 1.506957,1.8203966 1.980643,2.4690838 0.579587,0.7937145 0.463267,0.7250084 1.408632,0.8320227 0.883972,0.1000646 2.597097,0.3766418 3.309975,0.534382 0.563765,0.1247455 0.587572,0.1261148 0.613559,0.035288 z M 9.8872159,9.3933292 C 10.818837,9.209661 11.940805,9.0364844 12.956482,8.9195847 L 13.826217,8.819482 14.435684,8.0080043 c 0.621262,-0.8271825 1.532785,-1.9429375 2.098611,-2.568817 0.173,-0.1913619 0.313363,-0.3643348 0.311916,-0.3843842 C 16.842687,5.0059521 15.914878,4.2007099 15.401719,3.8011327 13.926873,2.6527268 12.350996,1.8424179 11.247667,1.6651374 10.77961,1.589931 10.131849,1.6254914 9.8765061,1.7404103 9.3540832,1.9755308 8.9729948,2.5522964 8.7237695,3.4850429 l -0.135811,0.5082819 -0.00169,1.4948275 c -0.00154,1.3623101 0.0071,1.5497273 0.097437,2.1141131 0.1025115,0.6404383 0.3390782,1.8280839 0.3760516,1.8879081 0.032707,0.052921 0.1190733,0.042813 0.8274588,-0.096844 z M 19.511532,8.6421541 c 0.250301,-0.015315 0.454808,-0.039339 0.45446,-0.053387 -0.0022,-0.090011 -1.915427,-2.3532014 -1.989291,-2.3532014 -0.05941,0 -0.572124,0.5880233 -1.393084,1.5976985 l -0.628254,0.7726708 0.329288,0.0242 c 0.487893,0.035856 2.702481,0.044105 3.226881,0.012019 z"
     id="path3586"
     transform="matrix(7.125,0,0,7.125,-6.2608719e-4,0)" />
  <path
     style="opacity:1;fill:#9a27a7;fill-opacity:1;fill-rule:nonzero;stroke:#9a27a7;stroke-width:0.00222089;stroke-linejoin:round;stroke-miterlimit:1;stroke-dasharray:none;stroke-opacity:1"
     d="m 17.521513,18.949858 c -0.269663,-0.04234 -0.590827,-0.151861 -0.881858,-0.300727 -0.709543,-0.36294 -1.322547,-1.062572 -1.57738,-1.80029 l -0.07008,-0.202869 -0.0077,-0.674289 -0.0077,-0.674288 0.05631,-0.167747 c 0.03097,-0.09226 0.113,-0.278921 0.182287,-0.4148 0.471112,-0.923901 1.244376,-1.536963 2.200256,-1.744418 0.254474,-0.05523 0.854493,-0.05593 1.109578,-0.0013 1.048479,0.22456 1.916534,0.977469 2.260143,1.960338 0.129868,0.37148 0.163637,0.58501 0.163388,1.03315 -2.42e-4,0.432554 -0.02168,0.584784 -0.132336,0.939606 -0.293652,0.941618 -1.160821,1.754769 -2.106006,1.974818 -0.366691,0.08537 -0.900612,0.11807 -1.188859,0.07281 z"
     id="path3588"
     transform="matrix(7.125,0,0,7.125,-6.2608719e-4,0)" />
  <path
     style="opacity:1;fill:#9a27a7;fill-opacity:1;fill-rule:nonzero;stroke:#9a27a7;stroke-width:0.00222089;stroke-linejoin:round;stroke-miterlimit:1;stroke-dasharray:none;stroke-opacity:1"
     d=""
     id="path3590"
     transform="matrix(7.125,0,0,7.125,-6.2608719e-4,0)" />
  <path
     style="opacity:1;fill:#9a27a7;fill-opacity:1;fill-rule:nonzero;stroke:#9a27a7;stroke-width:0.00222089;stroke-linejoin:round;stroke-miterlimit:1;stroke-dasharray:none;stroke-opacity:1"
     d=""
     id="path3592"
     transform="matrix(7.125,0,0,7.125,-6.2608719e-4,0)" />
  <path
     style="opacity:1;fill:#9a27a7;fill-opacity:1;fill-rule:nonzero;stroke:#9a27a7;stroke-width:0.00222089;stroke-linejoin:round;stroke-miterlimit:1;stroke-dasharray:none;stroke-opacity:1"
     d="m 17.532191,18.951491 c -0.455922,-0.0712 -0.954726,-0.287457 -1.345345,-0.583275 -0.513211,-0.388658 -0.946654,-0.977759 -1.133621,-1.54073 -0.05989,-0.18034 -0.06034,-0.185729 -0.06854,-0.832832 -0.0057,-0.451855 -4.91e-4,-0.687287 0.01711,-0.768769 0.03534,-0.163616 0.27308,-0.651481 0.43648,-0.895697 0.76969,-1.150368 2.083005,-1.656638 3.354481,-1.293118 0.250108,0.07151 0.654977,0.270691 0.896257,0.440933 0.381441,0.269137 0.746747,0.697277 0.960044,1.125177 0.09127,0.183091 0.207567,0.523019 0.256887,0.750834 0.05221,0.241144 0.06521,0.795363 0.02481,1.057056 -0.141665,0.917587 -0.65032,1.66933 -1.452735,2.147004 -0.465575,0.277155 -0.845291,0.378977 -1.540087,0.41298 -0.131132,0.0064 -0.28772,-0.0011 -0.405739,-0.01956 z"
     id="path3594"
     transform="matrix(7.125,0,0,7.125,-6.2608719e-4,0)" />
  <path
     style="opacity:1;fill:#9a27a7;fill-opacity:1;fill-rule:nonzero;stroke:#9a27a7;stroke-width:0.402;stroke-linejoin:round;stroke-miterlimit:1;stroke-dasharray:none;stroke-opacity:1"
     d="m 17.649641,18.969479 c -0.265239,-0.02837 -0.621973,-0.131676 -0.904903,-0.262042 -0.745693,-0.343597 -1.404784,-1.070256 -1.685774,-1.858596 l -0.0647,-0.181515 -0.0089,-0.66147 c -0.0064,-0.474338 -0.0014,-0.696648 0.01751,-0.785816 0.03476,-0.163777 0.266072,-0.636406 0.436102,-0.891051 0.502672,-0.752825 1.259664,-1.248666 2.103864,-1.378062 1.398965,-0.214428 2.802409,0.658796 3.256421,2.026148 0.10855,0.326921 0.13995,0.504613 0.153402,0.868096 0.01941,0.524339 -0.06403,0.954017 -0.273124,1.40661 -0.37748,0.817053 -1.196377,1.470362 -2.06251,1.645451 -0.187204,0.03784 -0.739722,0.09217 -0.849965,0.08357 -0.02349,-0.0018 -0.07634,-0.0069 -0.117451,-0.01132 z"
     id="path3596"
     transform="matrix(7.125,0,0,7.125,-6.2608719e-4,0)" />
  <path
     style="opacity:1;fill:#9a27a7;fill-opacity:1;fill-rule:nonzero;stroke:#9a27a7;stroke-width:0.112;stroke-linejoin:round;stroke-miterlimit:1;stroke-dasharray:none;stroke-opacity:1"
     d="M 9.9660249,31.890286 C 9.2433552,31.738352 8.7849582,31.485807 8.2892928,30.966526 7.1528782,29.775967 6.7122573,27.587436 7.0384824,24.753846 7.0841404,24.35726 7.1715358,23.830216 7.3712564,22.747024 7.4467554,22.337553 7.4741907,22.124247 7.4539604,22.104017 7.4373104,22.087367 7.105566,21.960678 6.7167512,21.822487 5.7217881,21.468861 5.1697933,21.241324 4.4394111,20.883751 2.8598239,20.110433 1.8510397,19.35648 0.93334218,18.26336 0.10365373,17.275072 -0.19085154,16.130481 0.12476317,15.120825 0.21808423,14.82229 0.44535719,14.343082 0.62407254,14.068025 0.87613523,13.68008 1.5946244,12.93272 2.1386177,12.492622 2.5480086,12.161419 3.375441,11.654083 4.0923017,11.294732 4.8925058,10.893602 5.6249054,10.594247 6.6789707,10.237479 7.0741487,10.103724 7.4268394,9.9750486 7.4627279,9.9515337 L 7.5279797,9.9087791 7.3941037,9.2654502 C 7.0519281,7.6211557 6.9777253,6.9600863 6.9778213,5.5568139 6.9779119,4.1362316 7.0524037,3.5375405 7.3364291,2.6744148 7.7100321,1.5390706 8.2905063,0.78507593 9.1053227,0.37674721 9.6487661,0.10441158 9.9753869,0.04586407 10.82144,0.06912928 c 0.667417,0.01835301 0.922806,0.0615199 1.549719,0.26194034 1.627498,0.52030128 3.202944,1.50172308 5.158121,3.21324258 0.23982,0.2099338 0.443671,0.3816167 0.453001,0.3815179 0.0093,-9.06e-5 0.193634,-0.1581524 0.409565,-0.3512302 1.395237,-1.2475725 2.569005,-2.0861409 3.781452,-2.70156169 1.581576,-0.80278571 2.975905,-1.05268606 4.085465,-0.73222281 0.509454,0.14714069 0.821949,0.33825507 1.264657,0.77343411 0.642235,0.63131429 1.032993,1.46744129 1.287555,2.75505969 0.131036,0.662804 0.168915,1.7439948 0.105258,3.0044478 -0.04059,0.8037641 -0.08588,1.1365185 -0.344539,2.5314766 -0.05947,0.3207115 -0.108123,0.6276624 -0.108123,0.6821125 v 0.099 l 0.641752,0.2192039 c 2.331219,0.796277 3.952951,1.654699 5.210253,2.757915 0.315337,0.276691 0.687885,0.685945 0.907587,0.997011 0.186289,0.263752 0.529066,0.972741 0.613439,1.268809 0.06061,0.212701 0.07068,0.315292 0.07028,0.716355 -3.93e-4,0.391401 -0.01169,0.509329 -0.06895,0.719717 -0.210283,0.772642 -0.689773,1.518048 -1.43052,2.223866 -1.137338,1.083707 -2.840411,2.029019 -5.098232,2.829836 -0.85269,0.302438 -0.801906,0.279199 -0.790287,0.361636 0.0055,0.03908 0.07035,0.383631 0.144095,0.765662 0.148571,0.769671 0.261629,1.517736 0.319499,2.114005 0.0581,0.598609 0.04958,2.018013 -0.01531,2.551907 -0.260975,2.147178 -0.994711,3.508765 -2.225002,4.128918 -0.445004,0.224311 -0.845412,0.307992 -1.479804,0.309261 -0.9389,0.0019 -1.835708,-0.234181 -2.964352,-0.780274 -1.226894,-0.593634 -2.754457,-1.687132 -3.975736,-2.846013 -0.138001,-0.13095 -0.262173,-0.238091 -0.275938,-0.238091 -0.01376,0 -0.138711,0.103389 -0.277659,0.229753 -1.633351,1.485414 -3.428815,2.657438 -4.903446,3.200816 -1.051729,0.387542 -2.156112,0.529875 -2.8992071,0.373647 z M 11.142366,30.34981 c 1.216841,-0.139394 2.91135,-0.986825 4.47201,-2.236466 0.819885,-0.656492 1.252634,-1.059969 1.252108,-1.167414 -1.51e-4,-0.02902 -0.273502,-0.372129 -0.607466,-0.762465 -0.745158,-0.870937 -1.270176,-1.523829 -1.886416,-2.345874 -0.259271,-0.345858 -0.487054,-0.637666 -0.506185,-0.648462 -0.01913,-0.0108 -0.245428,-0.04191 -0.502884,-0.06915 -1.297987,-0.137302 -2.155396,-0.25805 -3.4811448,-0.490244 -0.5003555,-0.08763 -0.8191783,-0.130851 -0.8366203,-0.113409 -0.035577,0.03558 -0.3079282,1.37363 -0.3898918,1.91553 -0.1019744,0.674201 -0.1331461,1.294762 -0.1152915,2.295206 0.011287,0.632431 0.031973,1.019447 0.066007,1.234905 0.075887,0.480417 0.2365475,1.003693 0.4267814,1.390035 0.1410444,0.286444 0.2065622,0.381602 0.386927,0.561966 0.4152635,0.415265 0.878417,0.532484 1.722066,0.435837 z m 14.437098,0.0053 c 0.414134,-0.03117 0.587608,-0.113184 0.888546,-0.420063 0.372728,-0.380086 0.627342,-0.940192 0.819935,-1.803717 0.128145,-0.57456 0.159491,-1.077502 0.138344,-2.219705 -0.02375,-1.282634 -0.0717,-1.720678 -0.309075,-2.823707 -0.119081,-0.553329 -0.151645,-0.649349 -0.220161,-0.649182 -0.02705,6e-5 -0.266627,0.04127 -0.532387,0.09156 -1.067872,0.202088 -2.325097,0.395484 -3.533409,0.543537 -0.282371,0.0346 -0.561999,0.07559 -0.621395,0.09109 -0.124931,0.03261 -0.131242,0.03997 -0.71612,0.835827 -0.543363,0.739365 -0.950385,1.25608 -1.726065,2.191244 -0.341456,0.411662 -0.620829,0.761347 -0.620829,0.777078 0,0.03226 0.556625,0.532831 1.057002,0.950565 1.249959,1.043513 2.431943,1.768954 3.587228,2.201659 0.603324,0.225972 1.074364,0.287553 1.788386,0.233809 z m -7.316199,-4.783236 c 0.438684,-0.495234 1.440525,-1.739532 1.713808,-2.128571 0.07272,-0.103519 0.123667,-0.196762 0.113221,-0.207208 -0.01045,-0.01045 -0.131864,-0.003 -0.269818,0.01657 -0.16578,0.02351 -0.861809,0.03745 -2.052773,0.04111 -0.99107,0.003 -1.811513,0.01511 -1.823208,0.02681 -0.05478,0.0548 1.982697,2.470236 2.083702,2.470236 0.02262,0 0.128395,-0.09853 0.235068,-0.21895 z m 2.786042,-3.911195 0.211255,-0.02237 0.386433,-0.604002 c 0.921738,-1.440694 1.728575,-2.849433 2.647491,-4.622521 l 0.22011,-0.424711 -0.303923,-0.602092 C 23.542345,14.06098 22.476022,12.2278 21.583008,10.867606 l -0.349852,-0.532877 -0.182452,-0.01638 c -0.100349,-0.009 -0.936699,-0.03228 -1.858556,-0.05171 -1.630562,-0.03438 -3.602405,-0.0077 -4.253461,0.05748 -0.261947,0.02624 -0.20944,-0.02646 -0.681273,0.68376 -0.824668,1.241328 -1.679338,2.723319 -2.449699,4.247757 l -0.37625,0.744548 0.380322,0.735255 c 0.912063,1.763245 1.397354,2.598219 2.577505,4.434766 0.154766,0.240845 0.293692,0.451491 0.308724,0.468101 0.01503,0.01661 0.247537,0.03845 0.516677,0.04853 0.650808,0.02438 5.565395,0.0023 5.834614,-0.02616 z m -8.380375,-0.24388 c 0,-0.01387 -0.06979,-0.139575 -0.155087,-0.27935 -0.563055,-0.922661 -1.280654,-2.159866 -1.701997,-2.934394 -0.09713,-0.178558 -0.186272,-0.32465 -0.198082,-0.32465 -0.06945,0 -1.1158423,2.833457 -1.1158423,3.021511 0,0.03015 0.026067,0.0631 0.057927,0.07321 0.161911,0.05139 1.9363933,0.351659 2.6449793,0.447573 0.17404,0.02356 0.468102,0.02111 0.468102,-0.0039 z m 11.175948,-0.05037 c 0.75654,-0.09942 2.601858,-0.434319 2.648135,-0.480596 0.02809,-0.02809 -0.05342,-0.290815 -0.310702,-1.001428 -0.461745,-1.275345 -0.77953,-2.04777 -0.834886,-2.029318 -0.01895,0.0063 -0.307684,0.493199 -0.641624,1.081957 -0.538337,0.949122 -1.276084,2.218111 -1.399245,2.406823 -0.04337,0.06646 -0.04175,0.06795 0.0743,0.06795 0.06525,0 0.274065,-0.02042 0.464025,-0.04539 z M 7.9209742,20.528501 C 7.9380517,20.507739 8.0837883,20.12382 8.2448329,19.675349 8.621738,18.625758 8.9775287,17.709944 9.3530844,16.82268 9.5180155,16.433025 9.6601805,16.078108 9.6690068,16.033976 9.6806426,15.975798 9.5934245,15.734653 9.3517961,15.156936 8.8948644,14.064442 8.6110194,13.336851 8.3222782,12.517931 7.9805653,11.548775 7.9887909,11.56922 7.9273652,11.536346 7.8587288,11.499613 7.585799,11.576167 6.7930796,11.8545 5.8815818,12.174538 5.4765852,12.342551 4.8320121,12.66805 3.7690247,13.204841 3.0307047,13.70543 2.4756705,14.265675 1.736992,15.011287 1.4467052,15.684331 1.6007818,16.294146 c 0.062318,0.246648 0.2823152,0.680399 0.4742273,0.934997 0.7524842,0.998276 2.4391882,2.107507 4.2368066,2.786262 0.3685349,0.139154 1.5245923,0.546425 1.5591562,0.54928 0.010424,8.61e-4 0.032925,-0.01542 0.050002,-0.03618 z M 28.371412,20.397167 c 1.061352,-0.322543 2.62612,-1.016584 3.565168,-1.581301 1.283156,-0.771655 2.130189,-1.646614 2.367311,-2.445356 0.06183,-0.20826 0.06239,-0.559583 0.0013,-0.795397 -0.267392,-1.031894 -1.681317,-2.214355 -3.759272,-3.143867 -0.768114,-0.343589 -2.303068,-0.894817 -2.491725,-0.894817 -0.07702,0 -0.09039,0.02939 -0.329637,0.724802 -0.275078,0.799564 -0.864998,2.291148 -1.257643,3.17989 l -0.237415,0.537384 0.136184,0.27116 c 0.27679,0.551121 0.987341,2.281846 1.356824,3.304884 0.208911,0.578439 0.347439,0.921102 0.372374,0.921102 0.01005,0 0.13449,-0.03532 0.276532,-0.07848 z M 11.055058,13.33403 c 0.211877,-0.381647 0.634929,-1.12042 0.940115,-1.641716 0.305187,-0.521297 0.57628,-0.989185 0.602429,-1.039753 l 0.04754,-0.09194 -0.222158,0.01903 c -0.363895,0.03118 -2.075274,0.320237 -2.6474803,0.447174 l -0.2811174,0.06236 0.020411,0.09527 c 0.041389,0.193184 0.9529877,2.693191 1.0463837,2.869648 0.02511,0.04744 0.03608,0.04983 0.06924,0.0151 0.02167,-0.0227 0.212757,-0.35353 0.424633,-0.735178 z m 14.447829,0.399454 c 0.252071,-0.595248 0.853081,-2.235836 0.918698,-2.507783 0.01805,-0.07481 0.009,-0.08895 -0.08079,-0.126477 -0.211166,-0.08823 -2.284475,-0.467519 -2.835599,-0.518741 -0.19975,-0.01856 -0.214421,-0.01599 -0.19516,0.0342 0.01145,0.02985 0.269624,0.477088 0.57371,0.993861 0.304086,0.516774 0.720318,1.238569 0.92496,1.60399 0.415287,0.741561 0.471568,0.830502 0.525537,0.830502 0.02066,0 0.09655,-0.139298 0.168648,-0.309551 z m 1.386154,-4.2003881 c 0.04085,-0.049227 0.213841,-0.9126188 0.318664,-1.5904761 0.239309,-1.547547 0.244202,-3.1488875 0.01292,-4.2280105 C 27.026885,2.8106614 26.662024,2.1204835 26.215476,1.8132501 25.963139,1.6396376 25.750672,1.5902828 25.247263,1.5883397 c -0.505366,-0.00195 -0.744452,0.03739 -1.287566,0.2118631 -1.208454,0.388211 -2.585445,1.2505807 -4.162313,2.6067353 -0.505721,0.4349346 -0.599697,0.5283884 -0.622431,0.6189702 -0.02545,0.1014194 0.02509,0.1819358 0.336653,0.5362371 0.559564,0.6363304 1.666275,2.0169809 2.126028,2.6522751 0.27194,0.3757702 0.395595,0.5133336 0.517197,0.5753706 0.0823,0.041988 0.321227,0.085174 0.825044,0.1491286 1.191163,0.1512069 2.445153,0.3551511 3.324391,0.5406656 0.48994,0.1033749 0.539618,0.1079209 0.584775,0.053511 z M 9.7303238,9.437256 C 11.022671,9.1961102 12.248338,9.0107328 13.348433,8.8900312 l 0.483202,-0.053017 0.422801,-0.5603543 C 14.982896,7.3112048 15.560146,6.5998988 16.64066,5.3362811 16.788645,5.1632184 16.859853,5.0568981 16.844707,5.0316204 16.778644,4.9213656 15.814605,4.0970238 15.235938,3.6559749 13.937483,2.6663171 12.444965,1.8982156 11.385428,1.6743696 11.088328,1.6116019 10.378107,1.6031663 10.117025,1.6593043 9.8632836,1.7138641 9.6660862,1.8215576 9.4600277,2.0181044 9.1218268,2.3406933 8.8936884,2.8006618 8.6805925,3.5895882 L 8.5617214,4.029674 8.5619932,5.1933949 c 4.137e-4,1.7870318 0.031267,2.1222913 0.3346609,3.6366578 0.1255049,0.6264471 0.1526448,0.7131711 0.2231828,0.7131711 0.023423,0 0.298143,-0.047686 0.6104888,-0.1059678 z M 19.9094,8.6232999 c 0.03737,-0.012828 0.06795,-0.035334 0.06795,-0.050014 0,-0.097329 -1.926243,-2.3520707 -2.009392,-2.3520707 -0.02266,0 -0.204296,0.186863 -0.40364,0.4152511 -0.499579,0.5723663 -1.62833,1.9521044 -1.612093,1.9705549 0.03456,0.039266 0.643358,0.052028 2.19802,0.046076 0.930163,-0.00356 1.721782,-0.01697 1.759155,-0.029797 z"
     id="path3598"
     transform="matrix(7.125,0,0,7.125,-6.2608719e-4,0)" />
</svg>
